# DevaForm ingestion fixture — kalash (Z-up, millimetres, off-center)
o kalash_body
usemtl BrassPot
v 251.000 -120.000 0.000
v 250.975 -119.777 0.000
v 250.901 -119.566 0.000
v 250.782 -119.377 0.000
v 250.623 -119.218 0.000
v 250.434 -119.099 0.000
v 250.223 -119.025 0.000
v 250.000 -119.000 0.000
v 249.777 -119.025 0.000
v 249.566 -119.099 0.000
v 249.377 -119.218 0.000
v 249.218 -119.377 0.000
v 249.099 -119.566 0.000
v 249.025 -119.777 0.000
v 249.000 -120.000 0.000
v 249.025 -120.223 0.000
v 249.099 -120.434 0.000
v 249.218 -120.623 0.000
v 249.377 -120.782 0.000
v 249.566 -120.901 0.000
v 249.777 -120.975 0.000
v 250.000 -121.000 0.000
v 250.223 -120.975 0.000
v 250.434 -120.901 0.000
v 250.623 -120.782 0.000
v 250.782 -120.623 0.000
v 250.901 -120.434 0.000
v 250.975 -120.223 0.000
v 292.000 -120.000 2.000
v 290.947 -110.654 2.000
v 287.841 -101.777 2.000
v 282.837 -93.813 2.000
v 276.187 -87.163 2.000
v 268.223 -82.159 2.000
v 259.346 -79.053 2.000
v 250.000 -78.000 2.000
v 240.654 -79.053 2.000
v 231.777 -82.159 2.000
v 223.813 -87.163 2.000
v 217.163 -93.813 2.000
v 212.159 -101.777 2.000
v 209.053 -110.654 2.000
v 208.000 -120.000 2.000
v 209.053 -129.346 2.000
v 212.159 -138.223 2.000
v 217.163 -146.187 2.000
v 223.813 -152.837 2.000
v 231.777 -157.841 2.000
v 240.654 -160.947 2.000
v 250.000 -162.000 2.000
v 259.346 -160.947 2.000
v 268.223 -157.841 2.000
v 276.187 -152.837 2.000
v 282.837 -146.187 2.000
v 287.841 -138.223 2.000
v 290.947 -129.346 2.000
v 305.000 -120.000 12.000
v 303.621 -107.761 12.000
v 299.553 -96.136 12.000
v 293.001 -85.708 12.000
v 284.292 -76.999 12.000
v 273.864 -70.447 12.000
v 262.239 -66.379 12.000
v 250.000 -65.000 12.000
v 237.761 -66.379 12.000
v 226.136 -70.447 12.000
v 215.708 -76.999 12.000
v 206.999 -85.708 12.000
v 200.447 -96.136 12.000
v 196.379 -107.761 12.000
v 195.000 -120.000 12.000
v 196.379 -132.239 12.000
v 200.447 -143.864 12.000
v 206.999 -154.292 12.000
v 215.708 -163.001 12.000
v 226.136 -169.553 12.000
v 237.761 -173.621 12.000
v 250.000 -175.000 12.000
v 262.239 -173.621 12.000
v 273.864 -169.553 12.000
v 284.292 -163.001 12.000
v 293.001 -154.292 12.000
v 299.553 -143.864 12.000
v 303.621 -132.239 12.000
v 312.000 -120.000 30.000
v 310.446 -106.204 30.000
v 305.860 -93.099 30.000
v 298.474 -81.344 30.000
v 288.656 -71.526 30.000
v 276.901 -64.140 30.000
v 263.796 -59.554 30.000
v 250.000 -58.000 30.000
v 236.204 -59.554 30.000
v 223.099 -64.140 30.000
v 211.344 -71.526 30.000
v 201.526 -81.344 30.000
v 194.140 -93.099 30.000
v 189.554 -106.204 30.000
v 188.000 -120.000 30.000
v 189.554 -133.796 30.000
v 194.140 -146.901 30.000
v 201.526 -158.656 30.000
v 211.344 -168.474 30.000
v 223.099 -175.860 30.000
v 236.204 -180.446 30.000
v 250.000 -182.000 30.000
v 263.796 -180.446 30.000
v 276.901 -175.860 30.000
v 288.656 -168.474 30.000
v 298.474 -158.656 30.000
v 305.860 -146.901 30.000
v 310.446 -133.796 30.000
v 308.000 -120.000 52.000
v 306.546 -107.094 52.000
v 302.256 -94.835 52.000
v 295.346 -83.838 52.000
v 286.162 -74.654 52.000
v 275.165 -67.744 52.000
v 262.906 -63.454 52.000
v 250.000 -62.000 52.000
v 237.094 -63.454 52.000
v 224.835 -67.744 52.000
v 213.838 -74.654 52.000
v 204.654 -83.838 52.000
v 197.744 -94.835 52.000
v 193.454 -107.094 52.000
v 192.000 -120.000 52.000
v 193.454 -132.906 52.000
v 197.744 -145.165 52.000
v 204.654 -156.162 52.000
v 213.838 -165.346 52.000
v 224.835 -172.256 52.000
v 237.094 -176.546 52.000
v 250.000 -178.000 52.000
v 262.906 -176.546 52.000
v 275.165 -172.256 52.000
v 286.162 -165.346 52.000
v 295.346 -156.162 52.000
v 302.256 -145.165 52.000
v 306.546 -132.906 52.000
v 290.000 -120.000 70.000
v 288.997 -111.099 70.000
v 286.039 -102.645 70.000
v 281.273 -95.060 70.000
v 274.940 -88.727 70.000
v 267.355 -83.961 70.000
v 258.901 -81.003 70.000
v 250.000 -80.000 70.000
v 241.099 -81.003 70.000
v 232.645 -83.961 70.000
v 225.060 -88.727 70.000
v 218.727 -95.060 70.000
v 213.961 -102.645 70.000
v 211.003 -111.099 70.000
v 210.000 -120.000 70.000
v 211.003 -128.901 70.000
v 213.961 -137.355 70.000
v 218.727 -144.940 70.000
v 225.060 -151.273 70.000
v 232.645 -156.039 70.000
v 241.099 -158.997 70.000
v 250.000 -160.000 70.000
v 258.901 -158.997 70.000
v 267.355 -156.039 70.000
v 274.940 -151.273 70.000
v 281.273 -144.940 70.000
v 286.039 -137.355 70.000
v 288.997 -128.901 70.000
v 280.000 -120.000 78.000
v 279.248 -113.324 78.000
v 277.029 -106.983 78.000
v 273.455 -101.295 78.000
v 268.705 -96.545 78.000
v 263.017 -92.971 78.000
v 256.676 -90.752 78.000
v 250.000 -90.000 78.000
v 243.324 -90.752 78.000
v 236.983 -92.971 78.000
v 231.295 -96.545 78.000
v 226.545 -101.295 78.000
v 222.971 -106.983 78.000
v 220.752 -113.324 78.000
v 220.000 -120.000 78.000
v 220.752 -126.676 78.000
v 222.971 -133.017 78.000
v 226.545 -138.705 78.000
v 231.295 -143.455 78.000
v 236.983 -147.029 78.000
v 243.324 -149.248 78.000
v 250.000 -150.000 78.000
v 256.676 -149.248 78.000
v 263.017 -147.029 78.000
v 268.705 -143.455 78.000
v 273.455 -138.705 78.000
v 277.029 -133.017 78.000
v 279.248 -126.676 78.000
v 284.000 -120.000 84.000
v 283.148 -112.434 84.000
v 280.633 -105.248 84.000
v 276.582 -98.801 84.000
v 271.199 -93.418 84.000
v 264.752 -89.367 84.000
v 257.566 -86.852 84.000
v 250.000 -86.000 84.000
v 242.434 -86.852 84.000
v 235.248 -89.367 84.000
v 228.801 -93.418 84.000
v 223.418 -98.801 84.000
v 219.367 -105.248 84.000
v 216.852 -112.434 84.000
v 216.000 -120.000 84.000
v 216.852 -127.566 84.000
v 219.367 -134.752 84.000
v 223.418 -141.199 84.000
v 228.801 -146.582 84.000
v 235.248 -150.633 84.000
v 242.434 -153.148 84.000
v 250.000 -154.000 84.000
v 257.566 -153.148 84.000
v 264.752 -150.633 84.000
v 271.199 -146.582 84.000
v 276.582 -141.199 84.000
v 280.633 -134.752 84.000
v 283.148 -127.566 84.000
v 294.000 -120.000 90.000
v 292.897 -110.209 90.000
v 289.643 -100.909 90.000
v 284.401 -92.566 90.000
v 277.434 -85.599 90.000
v 269.091 -80.357 90.000
v 259.791 -77.103 90.000
v 250.000 -76.000 90.000
v 240.209 -77.103 90.000
v 230.909 -80.357 90.000
v 222.566 -85.599 90.000
v 215.599 -92.566 90.000
v 210.357 -100.909 90.000
v 207.103 -110.209 90.000
v 206.000 -120.000 90.000
v 207.103 -129.791 90.000
v 210.357 -139.091 90.000
v 215.599 -147.434 90.000
v 222.566 -154.401 90.000
v 230.909 -159.643 90.000
v 240.209 -162.897 90.000
v 250.000 -164.000 90.000
v 259.791 -162.897 90.000
v 269.091 -159.643 90.000
v 277.434 -154.401 90.000
v 284.401 -147.434 90.000
v 289.643 -139.091 90.000
v 292.897 -129.791 90.000
v 296.000 -120.000 96.000
v 294.847 -109.764 96.000
v 291.445 -100.041 96.000
v 285.964 -91.319 96.000
v 278.681 -84.036 96.000
v 269.959 -78.555 96.000
v 260.236 -75.153 96.000
v 250.000 -74.000 96.000
v 239.764 -75.153 96.000
v 230.041 -78.555 96.000
v 221.319 -84.036 96.000
v 214.036 -91.319 96.000
v 208.555 -100.041 96.000
v 205.153 -109.764 96.000
v 204.000 -120.000 96.000
v 205.153 -130.236 96.000
v 208.555 -139.959 96.000
v 214.036 -148.681 96.000
v 221.319 -155.964 96.000
v 230.041 -161.445 96.000
v 239.764 -164.847 96.000
v 250.000 -166.000 96.000
v 260.236 -164.847 96.000
v 269.959 -161.445 96.000
v 278.681 -155.964 96.000
v 285.964 -148.681 96.000
v 291.445 -139.959 96.000
v 294.847 -130.236 96.000
v 286.000 -120.000 100.000
v 285.097 -111.989 100.000
v 282.435 -104.380 100.000
v 278.146 -97.554 100.000
v 272.446 -91.854 100.000
v 265.620 -87.565 100.000
v 258.011 -84.903 100.000
v 250.000 -84.000 100.000
v 241.989 -84.903 100.000
v 234.380 -87.565 100.000
v 227.554 -91.854 100.000
v 221.854 -97.554 100.000
v 217.565 -104.380 100.000
v 214.903 -111.989 100.000
v 214.000 -120.000 100.000
v 214.903 -128.011 100.000
v 217.565 -135.620 100.000
v 221.854 -142.446 100.000
v 227.554 -148.146 100.000
v 234.380 -152.435 100.000
v 241.989 -155.097 100.000
v 250.000 -156.000 100.000
v 258.011 -155.097 100.000
v 265.620 -152.435 100.000
v 272.446 -148.146 100.000
v 278.146 -142.446 100.000
v 282.435 -135.620 100.000
v 285.097 -128.011 100.000
v 274.000 -120.000 104.000
v 273.398 -114.659 104.000
v 271.623 -109.587 104.000
v 268.764 -105.036 104.000
v 264.964 -101.236 104.000
v 260.413 -98.377 104.000
v 255.341 -96.602 104.000
v 250.000 -96.000 104.000
v 244.659 -96.602 104.000
v 239.587 -98.377 104.000
v 235.036 -101.236 104.000
v 231.236 -105.036 104.000
v 228.377 -109.587 104.000
v 226.602 -114.659 104.000
v 226.000 -120.000 104.000
v 226.602 -125.341 104.000
v 228.377 -130.413 104.000
v 231.236 -134.964 104.000
v 235.036 -138.764 104.000
v 239.587 -141.623 104.000
v 244.659 -143.398 104.000
v 250.000 -144.000 104.000
v 255.341 -143.398 104.000
v 260.413 -141.623 104.000
v 264.964 -138.764 104.000
v 268.764 -134.964 104.000
v 271.623 -130.413 104.000
v 273.398 -125.341 104.000
v 264.000 -120.000 116.000
v 263.649 -116.885 116.000
v 262.614 -113.926 116.000
v 260.946 -111.271 116.000
v 258.729 -109.054 116.000
v 256.074 -107.386 116.000
v 253.115 -106.351 116.000
v 250.000 -106.000 116.000
v 246.885 -106.351 116.000
v 243.926 -107.386 116.000
v 241.271 -109.054 116.000
v 239.054 -111.271 116.000
v 237.386 -113.926 116.000
v 236.351 -116.885 116.000
v 236.000 -120.000 116.000
v 236.351 -123.115 116.000
v 237.386 -126.074 116.000
v 239.054 -128.729 116.000
v 241.271 -130.946 116.000
v 243.926 -132.614 116.000
v 246.885 -133.649 116.000
v 250.000 -134.000 116.000
v 253.115 -133.649 116.000
v 256.074 -132.614 116.000
v 258.729 -130.946 116.000
v 260.946 -128.729 116.000
v 262.614 -126.074 116.000
v 263.649 -123.115 116.000
v 251.000 -120.000 122.000
v 250.975 -119.777 122.000
v 250.901 -119.566 122.000
v 250.782 -119.377 122.000
v 250.623 -119.218 122.000
v 250.434 -119.099 122.000
v 250.223 -119.025 122.000
v 250.000 -119.000 122.000
v 249.777 -119.025 122.000
v 249.566 -119.099 122.000
v 249.377 -119.218 122.000
v 249.218 -119.377 122.000
v 249.099 -119.566 122.000
v 249.025 -119.777 122.000
v 249.000 -120.000 122.000
v 249.025 -120.223 122.000
v 249.099 -120.434 122.000
v 249.218 -120.623 122.000
v 249.377 -120.782 122.000
v 249.566 -120.901 122.000
v 249.777 -120.975 122.000
v 250.000 -121.000 122.000
v 250.223 -120.975 122.000
v 250.434 -120.901 122.000
v 250.623 -120.782 122.000
v 250.782 -120.623 122.000
v 250.901 -120.434 122.000
v 250.975 -120.223 122.000
f 1 29 2
f 2 29 30
f 2 30 3
f 3 30 31
f 3 31 4
f 4 31 32
f 4 32 5
f 5 32 33
f 5 33 6
f 6 33 34
f 6 34 7
f 7 34 35
f 7 35 8
f 8 35 36
f 8 36 9
f 9 36 37
f 9 37 10
f 10 37 38
f 10 38 11
f 11 38 39
f 11 39 12
f 12 39 40
f 12 40 13
f 13 40 41
f 13 41 14
f 14 41 42
f 14 42 15
f 15 42 43
f 15 43 16
f 16 43 44
f 16 44 17
f 17 44 45
f 17 45 18
f 18 45 46
f 18 46 19
f 19 46 47
f 19 47 20
f 20 47 48
f 20 48 21
f 21 48 49
f 21 49 22
f 22 49 50
f 22 50 23
f 23 50 51
f 23 51 24
f 24 51 52
f 24 52 25
f 25 52 53
f 25 53 26
f 26 53 54
f 26 54 27
f 27 54 55
f 27 55 28
f 28 55 56
f 28 56 1
f 1 56 29
f 29 57 30
f 30 57 58
f 30 58 31
f 31 58 59
f 31 59 32
f 32 59 60
f 32 60 33
f 33 60 61
f 33 61 34
f 34 61 62
f 34 62 35
f 35 62 63
f 35 63 36
f 36 63 64
f 36 64 37
f 37 64 65
f 37 65 38
f 38 65 66
f 38 66 39
f 39 66 67
f 39 67 40
f 40 67 68
f 40 68 41
f 41 68 69
f 41 69 42
f 42 69 70
f 42 70 43
f 43 70 71
f 43 71 44
f 44 71 72
f 44 72 45
f 45 72 73
f 45 73 46
f 46 73 74
f 46 74 47
f 47 74 75
f 47 75 48
f 48 75 76
f 48 76 49
f 49 76 77
f 49 77 50
f 50 77 78
f 50 78 51
f 51 78 79
f 51 79 52
f 52 79 80
f 52 80 53
f 53 80 81
f 53 81 54
f 54 81 82
f 54 82 55
f 55 82 83
f 55 83 56
f 56 83 84
f 56 84 29
f 29 84 57
f 57 85 58
f 58 85 86
f 58 86 59
f 59 86 87
f 59 87 60
f 60 87 88
f 60 88 61
f 61 88 89
f 61 89 62
f 62 89 90
f 62 90 63
f 63 90 91
f 63 91 64
f 64 91 92
f 64 92 65
f 65 92 93
f 65 93 66
f 66 93 94
f 66 94 67
f 67 94 95
f 67 95 68
f 68 95 96
f 68 96 69
f 69 96 97
f 69 97 70
f 70 97 98
f 70 98 71
f 71 98 99
f 71 99 72
f 72 99 100
f 72 100 73
f 73 100 101
f 73 101 74
f 74 101 102
f 74 102 75
f 75 102 103
f 75 103 76
f 76 103 104
f 76 104 77
f 77 104 105
f 77 105 78
f 78 105 106
f 78 106 79
f 79 106 107
f 79 107 80
f 80 107 108
f 80 108 81
f 81 108 109
f 81 109 82
f 82 109 110
f 82 110 83
f 83 110 111
f 83 111 84
f 84 111 112
f 84 112 57
f 57 112 85
f 85 113 86
f 86 113 114
f 86 114 87
f 87 114 115
f 87 115 88
f 88 115 116
f 88 116 89
f 89 116 117
f 89 117 90
f 90 117 118
f 90 118 91
f 91 118 119
f 91 119 92
f 92 119 120
f 92 120 93
f 93 120 121
f 93 121 94
f 94 121 122
f 94 122 95
f 95 122 123
f 95 123 96
f 96 123 124
f 96 124 97
f 97 124 125
f 97 125 98
f 98 125 126
f 98 126 99
f 99 126 127
f 99 127 100
f 100 127 128
f 100 128 101
f 101 128 129
f 101 129 102
f 102 129 130
f 102 130 103
f 103 130 131
f 103 131 104
f 104 131 132
f 104 132 105
f 105 132 133
f 105 133 106
f 106 133 134
f 106 134 107
f 107 134 135
f 107 135 108
f 108 135 136
f 108 136 109
f 109 136 137
f 109 137 110
f 110 137 138
f 110 138 111
f 111 138 139
f 111 139 112
f 112 139 140
f 112 140 85
f 85 140 113
f 113 141 114
f 114 141 142
f 114 142 115
f 115 142 143
f 115 143 116
f 116 143 144
f 116 144 117
f 117 144 145
f 117 145 118
f 118 145 146
f 118 146 119
f 119 146 147
f 119 147 120
f 120 147 148
f 120 148 121
f 121 148 149
f 121 149 122
f 122 149 150
f 122 150 123
f 123 150 151
f 123 151 124
f 124 151 152
f 124 152 125
f 125 152 153
f 125 153 126
f 126 153 154
f 126 154 127
f 127 154 155
f 127 155 128
f 128 155 156
f 128 156 129
f 129 156 157
f 129 157 130
f 130 157 158
f 130 158 131
f 131 158 159
f 131 159 132
f 132 159 160
f 132 160 133
f 133 160 161
f 133 161 134
f 134 161 162
f 134 162 135
f 135 162 163
f 135 163 136
f 136 163 164
f 136 164 137
f 137 164 165
f 137 165 138
f 138 165 166
f 138 166 139
f 139 166 167
f 139 167 140
f 140 167 168
f 140 168 113
f 113 168 141
f 141 169 142
f 142 169 170
f 142 170 143
f 143 170 171
f 143 171 144
f 144 171 172
f 144 172 145
f 145 172 173
f 145 173 146
f 146 173 174
f 146 174 147
f 147 174 175
f 147 175 148
f 148 175 176
f 148 176 149
f 149 176 177
f 149 177 150
f 150 177 178
f 150 178 151
f 151 178 179
f 151 179 152
f 152 179 180
f 152 180 153
f 153 180 181
f 153 181 154
f 154 181 182
f 154 182 155
f 155 182 183
f 155 183 156
f 156 183 184
f 156 184 157
f 157 184 185
f 157 185 158
f 158 185 186
f 158 186 159
f 159 186 187
f 159 187 160
f 160 187 188
f 160 188 161
f 161 188 189
f 161 189 162
f 162 189 190
f 162 190 163
f 163 190 191
f 163 191 164
f 164 191 192
f 164 192 165
f 165 192 193
f 165 193 166
f 166 193 194
f 166 194 167
f 167 194 195
f 167 195 168
f 168 195 196
f 168 196 141
f 141 196 169
f 169 197 170
f 170 197 198
f 170 198 171
f 171 198 199
f 171 199 172
f 172 199 200
f 172 200 173
f 173 200 201
f 173 201 174
f 174 201 202
f 174 202 175
f 175 202 203
f 175 203 176
f 176 203 204
f 176 204 177
f 177 204 205
f 177 205 178
f 178 205 206
f 178 206 179
f 179 206 207
f 179 207 180
f 180 207 208
f 180 208 181
f 181 208 209
f 181 209 182
f 182 209 210
f 182 210 183
f 183 210 211
f 183 211 184
f 184 211 212
f 184 212 185
f 185 212 213
f 185 213 186
f 186 213 214
f 186 214 187
f 187 214 215
f 187 215 188
f 188 215 216
f 188 216 189
f 189 216 217
f 189 217 190
f 190 217 218
f 190 218 191
f 191 218 219
f 191 219 192
f 192 219 220
f 192 220 193
f 193 220 221
f 193 221 194
f 194 221 222
f 194 222 195
f 195 222 223
f 195 223 196
f 196 223 224
f 196 224 169
f 169 224 197
f 197 225 198
f 198 225 226
f 198 226 199
f 199 226 227
f 199 227 200
f 200 227 228
f 200 228 201
f 201 228 229
f 201 229 202
f 202 229 230
f 202 230 203
f 203 230 231
f 203 231 204
f 204 231 232
f 204 232 205
f 205 232 233
f 205 233 206
f 206 233 234
f 206 234 207
f 207 234 235
f 207 235 208
f 208 235 236
f 208 236 209
f 209 236 237
f 209 237 210
f 210 237 238
f 210 238 211
f 211 238 239
f 211 239 212
f 212 239 240
f 212 240 213
f 213 240 241
f 213 241 214
f 214 241 242
f 214 242 215
f 215 242 243
f 215 243 216
f 216 243 244
f 216 244 217
f 217 244 245
f 217 245 218
f 218 245 246
f 218 246 219
f 219 246 247
f 219 247 220
f 220 247 248
f 220 248 221
f 221 248 249
f 221 249 222
f 222 249 250
f 222 250 223
f 223 250 251
f 223 251 224
f 224 251 252
f 224 252 197
f 197 252 225
f 225 253 226
f 226 253 254
f 226 254 227
f 227 254 255
f 227 255 228
f 228 255 256
f 228 256 229
f 229 256 257
f 229 257 230
f 230 257 258
f 230 258 231
f 231 258 259
f 231 259 232
f 232 259 260
f 232 260 233
f 233 260 261
f 233 261 234
f 234 261 262
f 234 262 235
f 235 262 263
f 235 263 236
f 236 263 264
f 236 264 237
f 237 264 265
f 237 265 238
f 238 265 266
f 238 266 239
f 239 266 267
f 239 267 240
f 240 267 268
f 240 268 241
f 241 268 269
f 241 269 242
f 242 269 270
f 242 270 243
f 243 270 271
f 243 271 244
f 244 271 272
f 244 272 245
f 245 272 273
f 245 273 246
f 246 273 274
f 246 274 247
f 247 274 275
f 247 275 248
f 248 275 276
f 248 276 249
f 249 276 277
f 249 277 250
f 250 277 278
f 250 278 251
f 251 278 279
f 251 279 252
f 252 279 280
f 252 280 225
f 225 280 253
f 253 281 254
f 254 281 282
f 254 282 255
f 255 282 283
f 255 283 256
f 256 283 284
f 256 284 257
f 257 284 285
f 257 285 258
f 258 285 286
f 258 286 259
f 259 286 287
f 259 287 260
f 260 287 288
f 260 288 261
f 261 288 289
f 261 289 262
f 262 289 290
f 262 290 263
f 263 290 291
f 263 291 264
f 264 291 292
f 264 292 265
f 265 292 293
f 265 293 266
f 266 293 294
f 266 294 267
f 267 294 295
f 267 295 268
f 268 295 296
f 268 296 269
f 269 296 297
f 269 297 270
f 270 297 298
f 270 298 271
f 271 298 299
f 271 299 272
f 272 299 300
f 272 300 273
f 273 300 301
f 273 301 274
f 274 301 302
f 274 302 275
f 275 302 303
f 275 303 276
f 276 303 304
f 276 304 277
f 277 304 305
f 277 305 278
f 278 305 306
f 278 306 279
f 279 306 307
f 279 307 280
f 280 307 308
f 280 308 253
f 253 308 281
f 281 309 282
f 282 309 310
f 282 310 283
f 283 310 311
f 283 311 284
f 284 311 312
f 284 312 285
f 285 312 313
f 285 313 286
f 286 313 314
f 286 314 287
f 287 314 315
f 287 315 288
f 288 315 316
f 288 316 289
f 289 316 317
f 289 317 290
f 290 317 318
f 290 318 291
f 291 318 319
f 291 319 292
f 292 319 320
f 292 320 293
f 293 320 321
f 293 321 294
f 294 321 322
f 294 322 295
f 295 322 323
f 295 323 296
f 296 323 324
f 296 324 297
f 297 324 325
f 297 325 298
f 298 325 326
f 298 326 299
f 299 326 327
f 299 327 300
f 300 327 328
f 300 328 301
f 301 328 329
f 301 329 302
f 302 329 330
f 302 330 303
f 303 330 331
f 303 331 304
f 304 331 332
f 304 332 305
f 305 332 333
f 305 333 306
f 306 333 334
f 306 334 307
f 307 334 335
f 307 335 308
f 308 335 336
f 308 336 281
f 281 336 309
f 309 337 310
f 310 337 338
f 310 338 311
f 311 338 339
f 311 339 312
f 312 339 340
f 312 340 313
f 313 340 341
f 313 341 314
f 314 341 342
f 314 342 315
f 315 342 343
f 315 343 316
f 316 343 344
f 316 344 317
f 317 344 345
f 317 345 318
f 318 345 346
f 318 346 319
f 319 346 347
f 319 347 320
f 320 347 348
f 320 348 321
f 321 348 349
f 321 349 322
f 322 349 350
f 322 350 323
f 323 350 351
f 323 351 324
f 324 351 352
f 324 352 325
f 325 352 353
f 325 353 326
f 326 353 354
f 326 354 327
f 327 354 355
f 327 355 328
f 328 355 356
f 328 356 329
f 329 356 357
f 329 357 330
f 330 357 358
f 330 358 331
f 331 358 359
f 331 359 332
f 332 359 360
f 332 360 333
f 333 360 361
f 333 361 334
f 334 361 362
f 334 362 335
f 335 362 363
f 335 363 336
f 336 363 364
f 336 364 309
f 309 364 337
f 337 365 338
f 338 365 366
f 338 366 339
f 339 366 367
f 339 367 340
f 340 367 368
f 340 368 341
f 341 368 369
f 341 369 342
f 342 369 370
f 342 370 343
f 343 370 371
f 343 371 344
f 344 371 372
f 344 372 345
f 345 372 373
f 345 373 346
f 346 373 374
f 346 374 347
f 347 374 375
f 347 375 348
f 348 375 376
f 348 376 349
f 349 376 377
f 349 377 350
f 350 377 378
f 350 378 351
f 351 378 379
f 351 379 352
f 352 379 380
f 352 380 353
f 353 380 381
f 353 381 354
f 354 381 382
f 354 382 355
f 355 382 383
f 355 383 356
f 356 383 384
f 356 384 357
f 357 384 385
f 357 385 358
f 358 385 386
f 358 386 359
f 359 386 387
f 359 387 360
f 360 387 388
f 360 388 361
f 361 388 389
f 361 389 362
f 362 389 390
f 362 390 363
f 363 390 391
f 363 391 364
f 364 391 392
f 364 392 337
f 337 392 365
